<svg xmlns="http://www.w3.org/2000/svg" width="320" height="320" viewBox="0 0 320 320" role="img" aria-label="Logo Đa Minh Thủ Đức 2">
  <rect width="320" height="320" fill="#f8fafc"/>
  <g transform="translate(160 160) rotate(45)">
    <rect x="-120" y="-120" width="240" height="240" fill="white" stroke="#1d4ed8" stroke-width="4"/>
  </g>
  <path d="M98 190c26-44 52-70 84-70" fill="none" stroke="#1d4ed8" stroke-width="14" stroke-linecap="round"/>
  <path d="M92 132c16 2 29 10 40 24" fill="none" stroke="#1d4ed8" stroke-width="14" stroke-linecap="round"/>
  <path d="M172 176c8-16 14-24 24-32 8 6 12 16 8 28-6 12-18 16-32 4z" fill="#dc2626"/>
  <path d="M132 212c8-20 50-26 94-18" fill="none" stroke="#111827" stroke-width="2"/>
  <path d="M138 212l14 54h36l14-54" fill="none" stroke="#111827" stroke-width="3"/>
  <text x="160" y="78" text-anchor="middle" font-size="15" font-family="Segoe UI, Arial" fill="#0f172a" font-weight="600">SINH VIÊN NHỊP BƯỚC ĐA MINH</text>
</svg>
